<svg width="24" height="17" viewBox="0 0 24 17" fill="none" xmlns="http://www.w3.org/2000/svg">
<path d="M22.7747 3.37622C22.5154 2.41231 21.7554 1.65247 20.7916 1.39291C19.0309 0.911163 11.988 0.911163 11.988 0.911163C11.988 0.911163 4.94536 0.911163 3.18466 1.37465C2.23943 1.63393 1.46091 2.41244 1.20163 3.37622C0.738281 5.13678 0.738281 8.78795 0.738281 8.78795C0.738281 8.78795 0.738281 12.4575 1.20163 14.1997C1.46118 15.1635 2.22089 15.9233 3.1848 16.1828C4.9639 16.6647 11.9883 16.6647 11.9883 16.6647C11.9883 16.6647 19.0309 16.6647 20.7916 16.2012C21.7555 15.9418 22.5154 15.182 22.7749 14.2182C23.2381 12.4575 23.2381 8.80649 23.2381 8.80649C23.2381 8.80649 23.2567 5.13678 22.7747 3.37622ZM9.7457 12.161V5.41487L15.6022 8.78795L9.7457 12.161Z" fill="white"/>
</svg>
