<svg width="144" height="140" viewBox="0 0 144 140" fill="none" xmlns="http://www.w3.org/2000/svg">
<path d="M142.136 66.9962L141.805 66.1438C140.712 63.3192 138.049 61.4939 135.02 61.4939H119.879C116.701 56.1805 110.901 52.8344 104.631 52.8344H101.47V45.7075H104.777C106.679 45.7075 108.422 44.7485 109.441 43.1425C110.46 41.5366 110.584 39.5504 109.773 37.83L106.347 30.5566C106.002 13.8866 92.3355 0.431274 75.5842 0.431274H68.4188C51.6675 0.431274 38.0013 13.8863 37.6562 30.5563L34.2294 37.83C33.4189 39.5504 33.5429 41.5366 34.5619 43.1425C35.5806 44.7485 37.324 45.7075 39.2261 45.7075H42.5322V52.8344H39.3718C33.1011 52.8344 27.2991 56.1819 24.1233 61.4939H8.93181C5.95365 61.4939 3.30736 63.2795 2.19249 66.0363L2.01192 66.4801C-0.670641 73.1165 -0.670641 80.4259 2.01192 87.0632L2.18996 87.5028C3.3068 90.2644 5.95308 92.0489 8.93209 92.0489H21.6151V93.962C18.5503 99.713 16.9292 106.169 16.9292 112.686V130.287C16.9292 135.405 21.0931 139.569 26.211 139.569H43.907H100.095H117.791C122.909 139.569 127.073 135.405 127.073 130.287V112.686C127.073 106.169 125.452 99.713 122.387 93.962V92.0489H135.121C136.554 92.0489 137.943 91.6307 139.138 90.8395C140.332 90.0498 141.258 88.9326 141.818 87.6088C144.614 81.0073 144.727 73.6878 142.136 66.9962ZM101.471 61.7096V58.4586H104.631C109.338 58.4586 113.659 61.2182 115.642 65.4935C116.386 67.0905 116.763 68.8052 116.763 70.5906V85.9584C112.178 80.8942 105.869 76.6353 99.1395 74.9233C98.9347 74.871 98.7291 74.8209 98.523 74.7728C100.042 71.573 101.002 68.1108 101.333 64.58C101.425 63.6474 101.471 62.6816 101.471 61.7096ZM39.3845 40.0834L42.2434 34.0148H70.3957C71.9488 34.0148 73.2079 32.7557 73.2079 31.2026V31.2023C73.2076 29.6495 71.9488 28.3907 70.396 28.3907H43.43C44.8323 15.8432 55.5032 6.05544 68.4188 6.05544H75.5842C88.4998 6.05544 99.1704 15.8432 100.573 28.3907H92.9849C91.4318 28.3907 90.1729 29.6495 90.1729 31.2023V31.2026C90.1729 32.7557 91.4318 34.0148 92.9852 34.0148H101.76L104.619 40.0834H98.6591H45.3442H39.3845ZM95.8463 45.7075V55.6464V61.7093C95.8463 62.499 95.8089 63.2806 95.7344 64.0428C95.3561 68.0701 93.9816 71.9789 91.7558 75.3525C89.7949 78.3402 87.2654 80.8191 84.236 82.721C83.0747 83.4511 81.8603 84.067 80.6096 84.5688C79.7183 84.9262 78.8087 85.2261 77.8862 85.4679C73.8897 86.5156 69.6582 86.4756 65.6791 85.3487C63.617 84.7645 61.6229 83.8881 59.7644 82.7198C59.0439 82.2676 58.3537 81.7802 57.6905 81.2632C55.5665 79.6072 53.7381 77.6258 52.2368 75.3384C51.8931 74.8212 51.5618 74.2747 51.2513 73.7117C49.5894 70.7037 48.5853 67.4516 48.2666 64.0313C48.1932 63.2818 48.1558 62.5005 48.1558 61.7093V55.6464V45.7075H95.8463ZM27.2572 69.9246C27.3396 68.3783 27.71 66.8902 28.3626 65.4893C30.3437 61.2182 34.6651 58.4586 39.3721 58.4586H42.5325V61.7096C42.5325 62.6833 42.5789 63.6491 42.6689 64.5674C43.0011 68.1297 43.9438 71.5539 45.4752 74.77C39.0276 76.2648 33.0639 80.0114 28.4306 84.7018C28.3859 84.7471 28.342 84.7935 28.2976 84.8388C27.9502 85.194 27.608 85.5548 27.2733 85.9238C27.2623 85.9356 27.2508 85.9469 27.2401 85.959V70.5906H27.2395C27.2395 70.3676 27.2454 70.1454 27.2572 69.9246ZM21.8952 67.4516C21.873 67.5762 21.8502 67.7005 21.8308 67.8256C21.8021 68.0101 21.7785 68.1961 21.7554 68.382C21.7408 68.5009 21.7242 68.6193 21.7118 68.7389C21.6907 68.9442 21.6761 69.1506 21.662 69.3573C21.6553 69.4586 21.6452 69.5593 21.6401 69.6608C21.6244 69.9693 21.6154 70.2793 21.6154 70.5909V86.425H8.93181C8.25653 86.425 7.6569 86.0206 7.40377 85.3945L7.22602 84.9555C5.09274 79.6781 5.09274 73.8655 7.22321 68.5954L7.40377 68.1519C7.65774 67.5241 8.25737 67.1186 8.93181 67.1186H21.9526C21.9309 67.2291 21.9149 67.3408 21.8952 67.4516ZM117.791 133.945H102.908V119.069C102.908 117.516 101.649 116.257 100.095 116.257C98.5421 116.257 97.2832 117.516 97.2832 119.069V133.945H46.7195V119.069C46.7195 117.516 45.4606 116.257 43.9073 116.257C42.3539 116.257 41.095 117.516 41.095 119.069V133.945H26.2113C24.1944 133.945 22.5536 132.304 22.5536 130.287V112.686C22.5536 106.874 24.0507 101.117 26.8826 96.0396C27.0336 95.769 27.1875 95.5021 27.3385 95.2456C28.2228 93.7586 29.2187 92.3375 30.3006 91.0198C34.6896 85.6662 41.2289 81.0475 48.5619 79.8952C50.8052 82.9184 53.5609 85.4657 56.7733 87.4822C66.0245 93.2982 77.979 93.2982 87.2288 87.4834C90.4415 85.4662 93.1972 82.9192 95.4402 79.8966C96.2181 80.0195 96.9904 80.179 97.7507 80.3731C103.91 81.9405 109.685 86.1187 113.703 91.0201C114.023 91.4105 114.335 91.809 114.639 92.2143C115.548 93.431 116.38 94.7118 117.12 96.0379C119.952 101.117 121.449 106.874 121.449 112.686V130.287C121.449 132.304 119.808 133.945 117.791 133.945ZM136.64 85.4165C136.639 85.4167 136.639 85.4173 136.639 85.4179C136.512 85.7191 136.303 85.9719 136.034 86.1497C135.762 86.3297 135.447 86.4247 135.121 86.4247H122.388V70.5906C122.388 70.279 122.379 69.9691 122.363 69.6602C122.358 69.5582 122.348 69.4572 122.341 69.3556C122.327 69.1495 122.312 68.9436 122.291 68.7389C122.279 68.6176 122.262 68.4976 122.247 68.3769C122.224 68.1932 122.201 68.0099 122.172 67.8276C122.152 67.6994 122.129 67.5717 122.106 67.444C122.087 67.3354 122.071 67.226 122.05 67.1177H135.02C135.707 67.1177 136.312 67.5315 136.561 68.1755L136.892 69.0291C138.952 74.3481 138.862 80.1678 136.64 85.4165Z" fill="#333333"/>
</svg>
