<svg width="24" height="14" viewBox="0 0 24 14" fill="none" xmlns="http://www.w3.org/2000/svg">
<path d="M23.7861 12.3671C23.7216 12.2591 23.3225 11.392 21.4024 9.60989C19.3923 7.74375 19.6623 8.04677 22.0835 4.82003C23.5581 2.85489 24.1476 1.6548 23.9631 1.14176C23.7876 0.652725 22.703 0.781735 22.703 0.781735L19.0967 0.802736C19.0967 0.802736 18.8297 0.766734 18.6302 0.885242C18.4367 1.00225 18.3122 1.27227 18.3122 1.27227C18.3122 1.27227 17.7406 2.79338 16.9786 4.08648C15.372 6.81518 14.7284 6.95919 14.4659 6.78968C13.8554 6.39515 14.0084 5.20256 14.0084 4.3565C14.0084 1.7118 14.4089 0.609222 13.2268 0.324201C12.8338 0.229694 12.5458 0.166689 11.5422 0.156188C10.2551 0.142687 9.16451 0.160689 8.54796 0.462211C8.13693 0.663226 7.82041 1.11176 8.01392 1.13726C8.25244 1.16876 8.79248 1.28277 9.079 1.6728C9.44953 2.17534 9.43603 3.30642 9.43603 3.30642C9.43603 3.30642 9.64904 6.41915 8.93949 6.80618C8.45195 7.0717 7.7844 6.53016 6.3518 4.05348C5.61825 2.78588 5.06321 1.38328 5.06321 1.38328C5.06321 1.38328 4.9567 1.12226 4.76618 0.98275C4.53517 0.813237 4.21114 0.759233 4.21114 0.759233L0.781892 0.780235C0.781892 0.780235 0.267354 0.795236 0.0783406 1.01875C-0.0896717 1.21827 0.0648396 1.6293 0.0648396 1.6293C0.0648396 1.6293 2.75004 7.91026 5.78926 11.077C8.57796 13.9797 11.7432 13.7892 11.7432 13.7892H13.1773C13.1773 13.7892 13.6108 13.7412 13.8313 13.5027C14.0354 13.2837 14.0279 12.8726 14.0279 12.8726C14.0279 12.8726 13.9994 10.948 14.8934 10.6645C15.774 10.3854 16.9051 12.5246 18.1037 13.3482C19.0097 13.9707 19.6983 13.8342 19.6983 13.8342L22.904 13.7892C22.904 13.7892 24.5811 13.6857 23.7861 12.3671Z" fill="white"/>
</svg>
